<svg xmlns="http://www.w3.org/2000/svg" version="1.1" xmlns:xlink="http://www.w3.org/1999/xlink" xmlns:svgjs="http://svgjs.com/svgjs" width="1920" height="1080" preserveAspectRatio="none" viewBox="0 0 1920 1080"><g mask="url(&quot;#SvgjsMask1060&quot;)" fill="none"><rect width="1920" height="1080" x="0" y="0" fill="rgba(61, 45, 66, 1)"></rect><path d="M0,436.815C90.761,432,189.845,463.517,266.185,414.191C342.492,364.886,346.67,257.121,396.088,180.887C456.917,87.049,601.815,26.387,589.637,-84.777C577.581,-194.824,433.819,-233.546,343.651,-297.775C273.987,-347.399,200.382,-381.938,122.582,-417.474C30.669,-459.456,-53.341,-531.257,-154.205,-525.175C-263.301,-518.597,-378.373,-471.928,-442.472,-383.404C-505.635,-296.173,-465.947,-175.761,-484.083,-69.601C-502.881,40.433,-591.345,147.548,-550.958,251.614C-510.591,355.627,-390.733,407.883,-284.977,443.432C-193.05,474.333,-96.846,441.953,0,436.815" fill="#352739"></path><path d="M1920 1987.676C2088.51 1977.7 2226.908 1869.546 2372.408 1783.961 2524.132 1694.716 2716.996 1637.481 2788.677 1476.712 2860.285 1316.109 2811.174 1122.525 2738.77 962.279 2675.867 823.0609999999999 2525.6 756.546 2415.452 650.6890000000001 2317.514 556.567 2249.794 432.894 2127.155 374.494 1992.148 310.20399999999995 1838.499 272.48299999999995 1692.915 306.62 1543.924 341.55499999999995 1427.165 450.56899999999996 1323.3220000000001 562.976 1216.7730000000001 678.313 1106.578 804.483 1088.853 960.499 1071.297 1115.029 1172.1950000000002 1250.809 1228.716 1395.699 1289.079 1550.438 1305.644 1731.613 1431.8029999999999 1839.649 1563.635 1952.542 1746.739 1997.934 1920 1987.676" fill="#45334b"></path></g><defs><mask id="SvgjsMask1060"><rect width="1920" height="1080" fill="#ffffff"></rect></mask></defs></svg>